<?xml version="1.0" encoding="UTF-8" standalone="no"?><!DOCTYPE svg PUBLIC "-//W3C//DTD SVG 1.1//EN" "http://www.w3.org/Graphics/SVG/1.1/DTD/svg11.dtd"><svg width="100%" height="100%" viewBox="0 0 520 520" version="1.1" xmlns="http://www.w3.org/2000/svg" xmlns:xlink="http://www.w3.org/1999/xlink" xml:space="preserve" style="fill-rule:evenodd;clip-rule:evenodd;stroke-linecap:round;stroke-linejoin:round;stroke-miterlimit:1.5;"><path d="M82.587,487.458c10.039,-2.696 123.638,-62.395 164.078,-59.788c40.44,2.607 104.882,29.705 176.973,-3.924c72.091,-33.628 77.851,-56.349 77.851,-56.349" style="fill:none;stroke:#b7e2fa;stroke-width:31.25px;"/><path d="M36.773,278.207c25.241,20.705 126.172,139.447 146.419,162.566" style="fill:none;stroke:#b7e2fa;stroke-width:31.25px;"/><path d="M82.571,155.717c66.419,42.249 332.006,284.547 385.285,331.722" style="fill:#fff;stroke:#b7e2fa;stroke-width:31.25px;"/><path d="M35.795,378.134c64.404,-42.46 379.763,-176.501 441.897,-204.088" style="fill:none;stroke:#b7e2fa;stroke-width:31.25px;"/><path d="M134.468,192.423c-3.91,-75.649 55.816,-184.57 152.713,-185.008c146.734,-0.664 170.837,145.804 168.755,180.783c-3.585,60.238 -61.348,78.079 -61.348,78.079l-99.386,116.529l-95.713,-106.716c0,0 -62.471,-34.315 -65.021,-83.667Z" style="fill:#161b4e;stroke:#fff;stroke-opacity:0;stroke-width:31.25px;"/><ellipse cx="295.171" cy="155.717" rx="71.559" ry="68.995" style="fill:#00a7e5;stroke:#fff;stroke-opacity:0;stroke-width:1px;"/></svg>