<?xml version="1.0" encoding="UTF-8" standalone="no"?><!DOCTYPE svg PUBLIC "-//W3C//DTD SVG 1.1//EN" "http://www.w3.org/Graphics/SVG/1.1/DTD/svg11.dtd"><svg width="100%" height="100%" viewBox="0 0 520 520" version="1.1" xmlns="http://www.w3.org/2000/svg" xmlns:xlink="http://www.w3.org/1999/xlink" xml:space="preserve" style="fill-rule:evenodd;clip-rule:evenodd;stroke-linecap:round;stroke-linejoin:round;stroke-miterlimit:1.5;"><path d="M419.284,96.895c0,-17.611 -14.298,-31.91 -31.91,-31.91l-271.677,0c-17.612,0 -31.91,14.299 -31.91,31.91l-0,339.59c-0,17.612 14.298,31.911 31.91,31.911l271.677,-0c17.612,-0 31.91,-14.299 31.91,-31.911l0,-339.59Z" style="fill:#00a7e5;stroke:#161b4e;stroke-width:35.42px;"/><path d="M419.284,235.265c1.589,79.575 26.588,134.55 69.936,149.829" style="fill:#161b4e;stroke:#161b4e;stroke-width:35.42px;"/><path d="M365.912,248.702c-11.93,28.043 14.977,115.353 65.788,152.57" style="fill:#00a7e5;stroke:#00a7e5;stroke-width:41.67px;"/><path d="M391.128,266.69c7.68,48.049 30.139,129.919 59.099,124.439" style="fill:#00a7e5;stroke:#00a7e5;stroke-width:29.17px;"/><ellipse cx="150.558" cy="156.758" rx="21.802" ry="21.538" style="fill:#161b4e;"/><ellipse cx="150.558" cy="213.058" rx="21.802" ry="21.538" style="fill:#161b4e;"/><path d="M293.288,401.289c9.427,0.244 139.043,28.351 193.508,-10.16" style="fill:#fff;stroke:#161b4e;stroke-width:35.42px;"/><path d="M329.018,124.632c6.906,-7.218 10.542,-15.406 10.542,-23.741c0,-26.205 -35.259,-47.481 -78.688,-47.481c-43.43,0 -78.689,21.276 -78.689,47.481c0,8.335 3.636,16.523 10.542,23.741l136.293,0Z" style="fill:#161b4e;"/><path d="M284.382,67.915c2.472,-3.411 3.774,-7.28 3.774,-11.219c-0,-12.383 -12.623,-22.437 -28.17,-22.437c-15.548,-0 -28.17,10.054 -28.17,22.437c-0,3.939 1.302,7.808 3.774,11.219l48.792,0Z" style="fill:#00a7e5;stroke:#161b4e;stroke-width:16.67px;"/><path d="M205.915,153.312l134.29,-0" style="fill:none;stroke:#161b4e;stroke-width:27.08px;"/><path d="M205.915,211.288l134.29,-0" style="fill:none;stroke:#161b4e;stroke-width:27.08px;"/><ellipse cx="150.558" cy="266.69" rx="21.802" ry="21.538" style="fill:#161b4e;"/><path d="M205.915,264.921l134.29,-0" style="fill:none;stroke:#161b4e;stroke-width:27.08px;"/><path d="M97.737,327.949c36.014,25.976 33.05,59.974 213.81,79.748" style="fill:#00a7e5;stroke:#161b4e;stroke-width:29.17px;"/><path d="M83.787,304.29c19.776,35.262 96.539,42.28 131.245,15.561c14.252,-10.973 -8.065,73.389 78.256,81.421" style="fill:#00a7e5;stroke:#161b4e;stroke-width:35.42px;"/></svg>