<?xml version="1.0" encoding="UTF-8" standalone="no"?><!DOCTYPE svg PUBLIC "-//W3C//DTD SVG 1.1//EN" "http://www.w3.org/Graphics/SVG/1.1/DTD/svg11.dtd"><svg width="100%" height="100%" viewBox="0 0 520 520" version="1.1" xmlns="http://www.w3.org/2000/svg" xmlns:xlink="http://www.w3.org/1999/xlink" xml:space="preserve" style="fill-rule:evenodd;clip-rule:evenodd;stroke-linecap:round;stroke-linejoin:round;stroke-miterlimit:1.5;"><path d="M337.848,108.007c0.349,0.061 19.38,28.311 30.07,46.421c14.037,23.781 49.87,-116.229 91.899,-120.347" style="fill:#fff;fill-opacity:0;stroke:#161b4e;stroke-width:27.08px;"/><path d="M342.889,261.46c0.348,0.061 19.38,28.311 30.07,46.422c14.037,23.78 49.87,-116.23 91.899,-120.347" style="fill:#fff;fill-opacity:0;stroke:#161b4e;stroke-width:27.08px;"/><path d="M103.029,82.059c29.283,0.245 197.73,6.26 180.423,6.404" style="fill:#fff;stroke:#161b4e;stroke-width:54.17px;"/><path d="M103.029,150.788c17.95,0.136 121.203,3.494 110.594,3.575" style="fill:#fff;stroke:#161b4e;stroke-width:54.17px;"/><path d="M109.976,271.843c28.163,0.244 190.169,6.259 173.524,6.403" style="fill:#fff;stroke:#161b4e;stroke-width:54.17px;"/><path d="M119.103,419.051c27.812,0.245 187.795,6.26 171.358,6.403" style="fill:#fff;stroke:#161b4e;stroke-width:54.17px;"/><circle cx="41.858" cy="82.059" r="24.877" style="fill:#161b4e;stroke:#161b4e;stroke-width:1px;"/><circle cx="48.451" cy="268.843" r="24.877" style="fill:#161b4e;stroke:#161b4e;stroke-width:1px;"/><circle cx="55.641" cy="419.051" r="24.877" style="fill:#161b4e;stroke:#161b4e;stroke-width:1px;"/></svg>