<?xml version="1.0" encoding="UTF-8" standalone="no"?><!DOCTYPE svg PUBLIC "-//W3C//DTD SVG 1.1//EN" "http://www.w3.org/Graphics/SVG/1.1/DTD/svg11.dtd"><svg width="100%" height="100%" viewBox="0 0 5985 3308" version="1.1" xmlns="http://www.w3.org/2000/svg" xmlns:xlink="http://www.w3.org/1999/xlink" xml:space="preserve" style="fill-rule:evenodd;clip-rule:evenodd;stroke-linejoin:round;stroke-miterlimit:2;"><rect x="76.083" y="104.48" width="5831.37" height="3124.62" style="fill:#bcbcbc;"/><g transform="matrix(0.889984,0.455991,-0.455991,0.889984,-370.516,-560.751)"><text x="2231.96px" y="-150.644px" style="font-family:'ArialMT', 'Arial', sans-serif;font-size:266.667px;">Main image will appear here</text></g><g transform="matrix(0.889984,0.455991,-0.455991,0.889984,-246.691,-996.31)"><text x="3196.52px" y="-111.81px" style="font-family:'ArialMT', 'Arial', sans-serif;font-size:266.667px;">Main image will appear here</text></g><g transform="matrix(0.889984,0.455991,-0.455991,0.889984,-180.107,-1349.95)"><text x="3962.69px" y="-150.644px" style="font-family:'ArialMT', 'Arial', sans-serif;font-size:266.667px;">Main image will appear</text></g><g transform="matrix(0.889984,0.455991,-0.455991,0.889984,-324.87,-295.456)"><text x="1704.98px" y="76.6px" style="font-family:'ArialMT', 'Arial', sans-serif;font-size:266.667px;">Main image will appear here</text></g><g transform="matrix(0.889984,0.455991,-0.455991,0.889984,113.194,-510.608)"><text x="2369.89px" y="876.863px" style="font-family:'ArialMT', 'Arial', sans-serif;font-size:266.667px;">Main image will appear here</text></g><g transform="matrix(0.889984,0.455991,-0.455991,0.889984,105.061,-157.895)"><text x="1634.87px" y="1036.36px" style="font-family:'ArialMT', 'Arial', sans-serif;font-size:266.667px;">Main image will appear here</text></g><g transform="matrix(0.889984,0.455991,-0.455991,0.889984,145.697,114.398)"><text x="1090.89px" y="1256.73px" style="font-family:'ArialMT', 'Arial', sans-serif;font-size:266.667px;">Main image will appear here</text></g><g transform="matrix(0.889984,0.455991,-0.455991,0.889984,226.311,302.197)"><text x="742.003px" y="1517.69px" style="font-family:'ArialMT', 'Arial', sans-serif;font-size:266.667px;">Main image will appear</text></g></svg>