<?xml version="1.0" encoding="UTF-8" standalone="no"?><!DOCTYPE svg PUBLIC "-//W3C//DTD SVG 1.1//EN" "http://www.w3.org/Graphics/SVG/1.1/DTD/svg11.dtd"><svg width="100%" height="100%" viewBox="0 0 2481 591" version="1.1" xmlns="http://www.w3.org/2000/svg" xmlns:xlink="http://www.w3.org/1999/xlink" xml:space="preserve" style="fill-rule:evenodd;clip-rule:evenodd;stroke-linejoin:round;stroke-miterlimit:2;"><rect x="31.991" y="106.512" width="2432.08" height="338.67" style="fill:#173a86;"/><g><path d="M2353.18,274.438l-35.011,-0c0,-0 -1.671,-6.318 -7.703,-8.041c-11.555,-3.302 -11.807,6.619 -7.726,8.631c10.025,4.942 50.257,3.561 50.653,34.715c0.079,6.228 -1.055,30.93 -42.093,32.61c-49.657,2.032 -51.24,-36.709 -51.24,-36.709l38.063,0c-0,0 0.728,9.052 10.387,8.54c4.162,-0.221 7.968,-1.338 8.246,-5c0.497,-6.537 -27.827,-6.35 -40.105,-14.187c-23.233,-14.828 -10.801,-49.569 11.268,-54.267c62.215,-13.247 65.261,33.708 65.261,33.708Z" style="fill:#8cb5e2;"/><path d="M2188.59,297.167l63.874,0c0,0 7.538,-37.526 -24.861,-53.001c-40.421,-19.305 -76.77,6.719 -77.792,41.193c-0.968,32.686 15.358,53.769 43.117,56.562c51.104,5.144 58.234,-37.432 58.234,-37.432l-42.367,0c0,0 -4.282,8.391 -12.523,5.195c-8.24,-3.196 -7.682,-12.517 -7.682,-12.517Z" style="fill:#8cb5e2;"/><path d="M1769.49,175.182c-107.342,5.801 -104.115,159.598 6.518,157.492c8.356,-0.159 16.52,-3.871 16.52,-3.871l0.449,12.135l40.646,0.974l-0.342,-102.296l-40.279,0.021l-0.249,43.949c-0,0 -24.826,22.276 -50.539,-3.027c-13.694,-13.476 -13.325,-36.258 -5.058,-48.098c13.357,-19.131 32.226,-16.4 32.226,-16.4l0.108,-40.879Z" style="fill:#8cb5e2;"/><path d="M1850.88,239.588l40.073,-0l0,54.979c0,0 1.243,16.987 14.355,14.02c13.112,-2.967 14.034,-13.639 14.034,-13.639l0,-55.366l38.705,-0l-0,102.33l-38.18,0l-0,-16.27c-0,-0 -15.38,16.704 -29.924,16.27c-14.545,-0.434 -38.225,-4.66 -39.176,-39.525c-0.951,-34.865 0.113,-62.799 0.113,-62.799Z" style="fill:#8cb5e2;"/><path d="M1813.18,165.549l7.103,22.613l25.646,0.041l-20.522,14.182l8.22,25.5l-20.252,-15.756l-20.925,14.545l8.109,-23.792l-20.888,-14.306l25.716,0.177l7.793,-23.204Z" style="fill:#8cb5e2;"/><path d="M1975.63,239.582l40.049,-0l-0,102.33l-39.289,0l-0.76,-102.33Z" style="fill:#8cb5e2;"/><path d="M1995.65,191.461c15.257,0.543 23.073,9.184 23.08,19.684c0.007,10.799 -7.974,20.526 -23.08,20.306c-15.82,-0.229 -21.772,-9.949 -22.206,-18.739c-0.588,-11.909 9.12,-21.717 22.206,-21.251Z" style="fill:#8cb5e2;"/><path d="M2097.82,252.93l-0,-45.976l39.919,-0.146l0.008,135.104l-39.726,0l0.398,-14.408c-0,0 -7.968,14.837 -28.339,14.408c-7.415,-0.156 -45.778,-1.239 -41.753,-60.272c2.96,-43.402 40.524,-44.259 42.443,-44.14c21.955,1.368 27.05,15.43 27.05,15.43Z" style="fill:#8cb5e2;"/><path d="M2083.71,272.606c7.96,0.345 14.74,6.715 13.741,18.141c-0.844,9.664 -3.289,15.179 -13.741,16.143c-9.598,0.885 -15.638,-8.615 -15.446,-16.143c0.301,-11.793 7.867,-18.468 15.446,-18.141Z" style="fill:#173a86;"/><path d="M2212.89,280.559l-23.566,-0c-0,-0 0.334,-11.51 12.132,-11.049c11.798,0.461 11.434,11.049 11.434,11.049Z" style="fill:#173a86;"/></g></svg>