<?xml version="1.0" encoding="UTF-8" standalone="no"?><!DOCTYPE svg PUBLIC "-//W3C//DTD SVG 1.1//EN" "http://www.w3.org/Graphics/SVG/1.1/DTD/svg11.dtd"><svg width="100%" height="100%" viewBox="0 0 520 520" version="1.1" xmlns="http://www.w3.org/2000/svg" xmlns:xlink="http://www.w3.org/1999/xlink" xml:space="preserve" style="fill-rule:evenodd;clip-rule:evenodd;stroke-linejoin:round;stroke-miterlimit:2;"><path d="M471.295,209.878c0,-25.288 -20.53,-45.819 -45.818,-45.819l-327.963,0c-25.288,0 -45.818,20.531 -45.818,45.819l-0,253.596c-0,25.288 20.53,45.819 45.818,45.819l327.963,-0c25.288,-0 45.818,-20.531 45.818,-45.819l0,-253.596Z" style="fill:#161b4e;"/><path d="M493.918,236.362c-72.352,3.919 -394.088,7.549 -466.736,5.46c-63.292,-1.82 29.324,-179.169 99.712,-181.543c60.699,-2.048 223.821,-6.143 281.456,5.46c66.253,13.337 144.382,167.438 85.568,170.623Z" style="fill:#161b4e;"/><path d="M221.968,29.596c0,-12.471 -10.125,-22.596 -22.596,-22.596l-50.586,-0c-12.471,-0 -22.596,10.125 -22.596,22.596l-0,45.191c-0,12.471 10.125,22.596 22.596,22.596l50.586,0c12.471,0 22.596,-10.125 22.596,-22.596l0,-45.191Z" style="fill:#161b4e;"/><path d="M238.691,389.211c0,-14.684 -11.921,-26.605 -26.605,-26.605l-53.21,-0c-14.684,-0 -26.605,11.921 -26.605,26.605l0,119.984c0,14.684 11.921,26.605 26.605,26.605l53.21,0c14.684,0 26.605,-11.921 26.605,-26.605l0,-119.984Z" style="fill:#00a7e5;"/><path d="M413.524,274.815c0,-12.879 -10.456,-23.336 -23.336,-23.336l-76.47,-0c-12.88,-0 -23.337,10.457 -23.337,23.336l0,46.674c0,12.88 10.457,23.336 23.337,23.336l76.47,0c12.88,0 23.336,-10.456 23.336,-23.336l0,-46.674Z" style="fill:#00a7e5;"/><path d="M235.651,268.889c-0,-9.609 -7.801,-17.41 -17.41,-17.41l-70.08,-0c-9.609,-0 -17.41,7.801 -17.41,17.41l-0,34.819c-0,9.609 7.801,17.41 17.41,17.41l70.08,0c9.609,0 17.41,-7.801 17.41,-17.41l-0,-34.819Z" style="fill:#00a7e5;"/></svg>