<?xml version="1.0" encoding="UTF-8" standalone="no"?><!DOCTYPE svg PUBLIC "-//W3C//DTD SVG 1.1//EN" "http://www.w3.org/Graphics/SVG/1.1/DTD/svg11.dtd"><svg width="100%" height="100%" viewBox="0 0 615 615" version="1.1" xmlns="http://www.w3.org/2000/svg" xmlns:xlink="http://www.w3.org/1999/xlink" xml:space="preserve" style="fill-rule:evenodd;clip-rule:evenodd;stroke-linecap:round;stroke-linejoin:round;stroke-miterlimit:1.5;"><path d="M82.586,194.225c9.974,-62.813 88.62,-204.642 346.925,-137.872c84.714,21.897 205.732,141.898 52.963,243.639c-53.717,35.775 -167.06,21.2 -163.933,27.296c3.127,6.095 1.618,40.506 -0,45.149c-1.619,4.643 -128.505,9.543 -133.139,6.567c-4.634,-2.975 -12.151,-113.49 -6.894,-113.593c209.201,-4.084 216.609,-20.691 225.164,-22.896c26.087,-6.725 97.615,-102.364 -85.131,-105.11c-14.892,-0.224 -83.412,-7.9 -98.1,50.342c-2.52,9.992 -13.929,11.346 -44.356,12.65c-30.427,1.303 -95.112,3.989 -93.499,-6.172Z" style="fill:#00a7e5;stroke:#161b4e;stroke-width:54.17px;"/><ellipse cx="256.492" cy="510.281" rx="69.719" ry="56.939" style="fill:#00a7e5;stroke:#161b4e;stroke-width:54.17px;"/></svg>