<?xml version="1.0" encoding="UTF-8" standalone="no"?><!DOCTYPE svg PUBLIC "-//W3C//DTD SVG 1.1//EN" "http://www.w3.org/Graphics/SVG/1.1/DTD/svg11.dtd"><svg width="100%" height="100%" viewBox="0 0 971 271" version="1.1" xmlns="http://www.w3.org/2000/svg" xmlns:xlink="http://www.w3.org/1999/xlink" xml:space="preserve" style="fill-rule:evenodd;clip-rule:evenodd;stroke-linejoin:round;stroke-miterlimit:2;"><g><path d="M653.929,78.086l22.321,0l0,73.202l-22.321,-0.001l0,-73.201Zm-34.787,39.741c-0,4.901 -1.271,8.697 -3.796,11.403c-2.521,2.706 -5.958,4.068 -10.313,4.068c-4.354,-0 -7.654,-1.362 -10.179,-4.068c-2.525,-2.706 -3.779,-6.518 -3.779,-11.403l0,-39.741l-22.204,0l-0,42.77c-0,6.383 1.171,11.931 3.525,16.663c2.354,4.714 5.658,8.322 9.925,10.824c4.267,2.485 9.179,3.744 14.75,3.744c4.692,0 8.996,-0.987 12.858,-2.961c3.875,-1.974 6.942,-4.561 9.196,-7.812l0,9.974l22.321,-0l-0,-73.202l-22.321,0l0,39.741l0.017,0Zm-172.484,33.443l22.321,0l0,-97.062l-22.321,-0l0,97.08l0,-0.018Zm87.442,-73.201l22.325,0l0,73.065c0,6.74 -1.321,12.833 -3.979,18.296c-2.663,5.464 -6.708,9.821 -12.146,13.055c-5.438,3.233 -12.212,4.85 -20.308,4.85c-10.788,0 -19.542,-2.553 -26.234,-7.676c-6.708,-5.106 -10.533,-12.05 -11.483,-20.798l22.067,0c0.696,2.809 2.354,5.004 4.962,6.621c2.609,1.617 5.829,2.417 9.654,2.417c4.609,-0 8.284,-1.328 11.03,-4c2.741,-2.672 4.112,-6.927 4.112,-12.782l0,-10.364c-2.167,3.403 -5.179,6.195 -9.008,8.322c-3.829,2.145 -8.317,3.217 -13.45,3.217c-6.013,-0 -11.446,-1.549 -16.309,-4.664c-4.879,-3.097 -8.72,-7.523 -11.55,-13.241c-2.829,-5.736 -4.233,-12.356 -4.233,-19.879c0,-7.523 1.404,-14.126 4.233,-19.811c2.83,-5.685 6.671,-10.058 11.55,-13.122c4.88,-3.063 10.313,-4.595 16.309,-4.595c5.133,-0 9.637,1.055 13.516,3.148c3.88,2.094 6.859,4.851 8.942,8.272l0,-10.365l0,0.034Zm0,36.592c0,-5.599 -1.542,-10.007 -4.637,-13.241c-2.9,-3.047 -6.405,-4.63 -10.505,-4.817l-0.929,-0.017l-1.475,0c0,0 -15.529,-0.187 -17.258,16.526l-0,3.149c1.746,16.697 17.258,16.526 17.258,16.526l1.625,0c4.438,0 8.2,-1.617 11.3,-4.85c3.079,-3.234 4.638,-7.66 4.638,-13.259m414.412,-36.592l22.321,0l0,73.065c0,6.74 -1.321,12.833 -3.979,18.297c-2.658,5.463 -6.708,9.82 -12.146,13.054c-5.433,3.233 -12.208,4.85 -20.304,4.85c-10.792,0 -19.546,-2.553 -26.238,-7.676c-6.704,-5.106 -10.533,-12.05 -11.483,-20.798l22.071,0c0.691,2.808 2.354,5.004 4.962,6.621c2.609,1.617 5.825,2.417 9.654,2.417c4.605,-0 8.28,-1.328 11.025,-4c2.742,-2.672 4.117,-6.927 4.117,-12.782l0,-10.365c-2.171,3.404 -5.183,6.196 -9.012,8.323c-3.829,2.144 -8.317,3.217 -13.446,3.217c-6.013,-0 -11.45,-1.549 -16.313,-4.664c-4.875,-3.098 -8.721,-7.523 -11.55,-13.241c-2.829,-5.736 -4.233,-12.356 -4.233,-19.879c-0,-7.523 1.404,-14.126 4.233,-19.811c2.829,-5.684 6.675,-10.059 11.55,-13.122c4.88,-3.063 10.317,-4.595 16.313,-4.595c5.129,-0 9.637,1.055 13.512,3.148c3.88,2.094 6.863,4.851 8.946,8.272l0,-10.365l0,0.034Zm0,36.592c0,-5.599 -1.542,-10.007 -4.642,-13.241c-2.895,-3.047 -6.404,-4.63 -10.5,-4.817l-0.933,-0.017l-1.475,0c0,0 -15.529,-0.187 -17.258,16.527l-0,3.148c1.746,16.696 17.258,16.526 17.258,16.526l1.629,0c4.438,0 8.196,-1.617 11.296,-4.85c3.083,-3.234 4.642,-7.659 4.642,-13.259m-207.138,0.596c0,-5.599 -1.541,-10.008 -4.641,-13.241c-2.896,-3.047 -6.4,-4.63 -10.5,-4.817l-0.934,-0.017l-1.471,0c0,0 -15.533,-0.187 -17.258,16.526l0,3.149c1.742,16.696 17.258,16.526 17.258,16.526l1.625,-0c4.438,-0 8.196,-1.617 11.296,-4.851c3.084,-3.234 4.642,-7.659 4.642,-13.258m-387.141,35.979l22.322,0l0,-73.235l-22.322,0l-0,73.235Zm-61.244,-51.91l0,16.527l28.335,-0c-1.744,5.242 -4.505,9.275 -8.282,12.066c-0.135,0.102 -0.288,0.188 -0.423,0.29c-3.709,2.604 -8.198,3.915 -13.482,3.915c-8.011,-0 -14.294,-2.383 -18.867,-7.149c-4.573,-4.765 -6.86,-11.386 -6.86,-19.879c0,-7.965 2.168,-14.33 6.521,-19.096c4.353,-4.765 10.128,-7.148 17.36,-7.148c4.183,-0 7.808,0.817 10.89,2.434c3.083,1.617 5.471,3.948 7.114,7.012l24.677,-0c-2.439,-9.446 -7.418,-16.832 -14.956,-22.177c-7.519,-5.344 -16.767,-7.999 -27.742,-7.999c-9.061,-0 -17.106,1.992 -24.152,5.974c-7.046,3.983 -12.55,9.531 -16.513,16.662c-3.963,7.131 -5.945,15.233 -5.945,24.338c-0,9.106 1.982,17.19 5.945,24.27c3.963,7.08 9.485,12.612 16.581,16.594c7.096,3.983 15.159,5.974 24.22,5.974c7.655,0 14.531,-1.48 20.629,-4.459c3.015,-1.464 5.758,-3.166 8.248,-5.089c4.624,-3.54 8.536,-7.778 11.449,-12.986c3.963,-7.08 5.945,-15.164 5.945,-24.27c0,-1.974 -0.102,-3.914 -0.288,-5.804l-50.421,0l0.017,0Zm72.472,-53.169c-3.912,0 -7.113,1.157 -9.602,3.472c-2.473,2.315 -3.727,5.225 -3.727,8.714c0,3.489 1.237,6.281 3.727,8.595c2.489,2.315 5.673,3.472 9.602,3.472c3.93,0 6.979,-1.157 9.468,-3.472c2.473,-2.314 3.727,-5.174 3.727,-8.595c-0,-3.421 -1.237,-6.399 -3.727,-8.714c-2.473,-2.315 -5.64,-3.472 -9.468,-3.472Zm45.883,44.115l-0,-12.203l-22.323,-0l-0,73.202l22.323,-0l-0,-33.972c-0,-6.042 1.388,-10.245 4.166,-12.662c2.793,-2.4 6.96,-3.608 12.535,-3.608l6.129,-0l-0,-23.743c-4.792,0 -9.146,1.158 -13.058,3.472c-3.913,2.315 -7.181,5.481 -9.79,9.514m364.819,60.999l22.321,-0l-0,-73.236l-22.321,0l-0,73.236Zm-654.624,-105.182l-13.854,0l-4.285,-13.241l-4.285,13.241l-13.854,0l11.212,8.187l-4.285,13.241l11.212,-8.186l11.212,8.186l-4.285,-13.241l11.212,-8.187Zm733.736,31.163c-4.796,0 -9.096,0.936 -12.925,2.825c-3.825,1.872 -6.875,4.442 -9.146,7.676l0,-9.701l-22.32,-0l-0,73.202l22.32,-0l0,-39.741c0,-4.902 1.255,-8.697 3.796,-11.421c2.525,-2.706 5.909,-4.067 10.179,-4.067c4.267,-0 7.655,1.361 10.18,4.067c2.52,2.707 3.791,6.519 3.791,11.421l0,39.741l22.188,-0l-0,-42.771c-0,-9.701 -2.538,-17.343 -7.638,-22.891c-5.079,-5.549 -11.908,-8.34 -20.425,-8.34Zm-759.327,93.863l14.582,0l0,-69.831l-14.582,0l-0,69.831Zm66.815,-106.985c-3.319,-0 -6.571,0.374 -9.688,1.089c1.169,-4.323 1.796,-8.85 1.796,-13.547c-0,-28.525 -23.085,-51.723 -51.471,-51.723c-28.386,0 -51.471,23.198 -51.471,51.723c0,4.714 0.627,9.275 1.812,13.615c-3.218,-0.765 -6.571,-1.157 -10.009,-1.157c-24.135,-0 -43.765,19.726 -43.765,43.979c-0,24.253 19.63,43.978 43.765,43.978c21.374,0 39.208,-15.471 43.019,-35.86c0.491,-2.621 0.745,-5.344 0.745,-8.118c0,-2.315 -0.186,-4.595 -0.525,-6.808l-43.477,0l0,14.926l28.268,-0c-3.506,12.237 -14.752,21.207 -28.047,21.207c-16.09,-0 -29.182,-13.157 -29.182,-29.325c-0,-16.169 13.092,-29.325 29.182,-29.325c9.061,0 17.174,4.17 22.542,10.722l11.331,-11.386c-6.825,-6.74 -11.076,-16.101 -11.076,-26.449c-0,-20.44 16.547,-37.068 36.888,-37.068c20.341,-0 36.888,16.628 36.888,37.068c0,9.821 -3.811,18.756 -10.043,25.394l0.711,0.851l8.706,10.416l0.762,0.919c5.352,-6.4 13.38,-10.467 22.323,-10.467c16.089,0 29.182,13.156 29.182,29.325c-0,16.168 -13.093,29.325 -29.182,29.325c-13.296,-0 -24.525,-8.97 -28.048,-21.207l28.048,-0l-0,-14.926l-43.24,0c-0.339,2.213 -0.525,4.493 -0.525,6.808c-0,2.774 0.254,5.48 0.745,8.118c3.794,20.389 21.645,35.86 43.02,35.86c24.134,0 43.764,-19.726 43.764,-43.978c0,-24.253 -19.63,-43.979 -43.764,-43.979m502.345,-17.973c-3.913,0 -7.113,1.157 -9.588,3.472c-2.47,2.315 -3.725,5.225 -3.725,8.714c0,3.489 1.238,6.281 3.725,8.595c2.475,2.315 5.675,3.472 9.588,3.472c3.912,0 6.979,-1.157 9.467,-3.472c2.475,-2.314 3.725,-5.174 3.725,-8.595c-0,-3.421 -1.234,-6.399 -3.725,-8.714c-2.471,-2.315 -5.638,-3.472 -9.467,-3.472Zm122.217,0c-3.913,0 -7.117,1.157 -9.588,3.472c-2.475,2.315 -3.725,5.225 -3.725,8.714c0,3.489 1.233,6.281 3.725,8.595c2.471,2.315 5.675,3.472 9.588,3.472c3.912,0 6.975,-1.157 9.466,-3.472c2.471,-2.314 3.725,-5.174 3.725,-8.595c0,-3.421 -1.237,-6.399 -3.725,-8.714c-2.475,-2.315 -5.641,-3.472 -9.466,-3.472Zm-46.017,7.999l22.321,0l-0,97.08l-22.321,0l-0,-10.501c-2.083,3.506 -5.067,6.298 -8.946,8.391c-3.879,2.093 -8.383,3.149 -13.512,3.149c-6.013,-0 -11.45,-1.549 -16.313,-4.664c-4.879,-3.097 -8.721,-7.522 -11.55,-13.241c-2.829,-5.736 -4.233,-12.356 -4.233,-19.879c-0,-7.522 1.404,-14.126 4.233,-19.811c2.829,-5.684 6.671,-10.059 11.55,-13.122c4.879,-3.064 10.317,-4.595 16.313,-4.595c4.775,-0 9.162,1.004 13.125,3.012c3.962,2.009 7.062,4.715 9.333,8.136l-0,-33.955Z" style="fill:#00a7e5;fill-rule:nonzero;"/><path d="M668.192,268.86c-2.846,-1.225 -5.084,-2.978 -6.742,-5.276c-1.658,-2.298 -2.508,-5.004 -2.542,-8.119l10.925,0c0.155,2.094 0.88,3.762 2.217,4.97c1.342,1.209 3.171,1.838 5.508,1.838c2.334,0 4.25,-0.578 5.605,-1.719c1.354,-1.14 2.033,-2.638 2.033,-4.493c-0,-1.515 -0.459,-2.757 -1.392,-3.727c-0.912,-0.97 -2.079,-1.736 -3.454,-2.298c-1.388,-0.561 -3.283,-1.174 -5.725,-1.872c-3.3,-0.97 -5.979,-1.94 -8.042,-2.893c-2.066,-0.953 -3.829,-2.383 -5.32,-4.323c-1.492,-1.923 -2.217,-4.493 -2.217,-7.727c-0,-3.03 0.746,-5.668 2.25,-7.897c1.508,-2.247 3.608,-3.966 6.337,-5.157c2.725,-1.192 5.825,-1.787 9.313,-1.787c5.25,-0 9.504,1.276 12.787,3.846c3.288,2.553 5.084,6.144 5.421,10.722l-11.212,0c-0.1,-1.753 -0.846,-3.199 -2.217,-4.356c-1.392,-1.141 -3.221,-1.72 -5.508,-1.72c-1.996,0 -3.571,0.511 -4.775,1.532c-1.184,1.021 -1.779,2.519 -1.779,4.459c-0,1.362 0.441,2.502 1.358,3.404c0.896,0.903 2.012,1.634 3.35,2.196c1.337,0.562 3.221,1.208 5.642,1.94c3.304,0.97 5.995,1.957 8.079,2.927c2.083,0.97 3.879,2.434 5.383,4.392c1.508,1.957 2.254,4.51 2.254,7.693c0,2.74 -0.712,5.275 -2.116,7.607c-1.405,2.349 -3.471,4.204 -6.2,5.6c-2.726,1.395 -5.942,2.093 -9.688,2.093c-3.537,-0 -6.742,-0.613 -9.567,-1.838l0.034,-0.017Z" style="fill:#00a7e5;fill-rule:nonzero;"/><path d="M703.029,238.888c1.696,-3.149 4.05,-5.583 7.063,-7.319c3.016,-1.736 6.454,-2.604 10.35,-2.604c4.995,0 9.146,1.26 12.412,3.762c3.288,2.518 5.471,6.042 6.592,10.569l-10.996,-0c-0.575,-1.753 -1.558,-3.132 -2.946,-4.136c-1.387,-1.004 -3.1,-1.498 -5.129,-1.498c-2.917,0 -5.217,1.056 -6.913,3.183c-1.691,2.128 -2.541,5.14 -2.541,9.038c-0,3.897 0.85,6.841 2.542,8.969c1.695,2.127 4.012,3.183 6.912,3.183c4.129,-0 6.825,-1.856 8.075,-5.566l10.996,0c-1.121,4.391 -3.321,7.88 -6.625,10.467c-3.3,2.587 -7.433,3.881 -12.379,3.881c-3.88,-0 -7.334,-0.869 -10.35,-2.605c-3.013,-1.735 -5.367,-4.169 -7.063,-7.318c-1.691,-3.149 -2.542,-6.825 -2.542,-11.011c0,-4.188 0.851,-7.864 2.542,-11.012l0,0.017Z" style="fill:#00a7e5;fill-rule:nonzero;"/><path d="M752.925,268.23c-3.1,-1.737 -5.554,-4.188 -7.317,-7.353c-1.779,-3.166 -2.658,-6.825 -2.658,-10.977c0,-4.153 0.912,-7.813 2.725,-10.978c1.829,-3.166 4.304,-5.617 7.471,-7.353c3.15,-1.736 6.671,-2.604 10.55,-2.604c3.879,0 7.404,0.868 10.571,2.604c3.15,1.736 5.637,4.187 7.466,7.353c1.83,3.166 2.729,6.825 2.729,10.978c0,4.152 -0.933,7.811 -2.812,10.977c-1.879,3.166 -4.388,5.616 -7.571,7.353c-3.183,1.735 -6.741,2.604 -10.671,2.604c-3.929,-0 -7.383,-0.869 -10.483,-2.604Zm15.7,-7.676c1.625,-0.902 2.929,-2.264 3.896,-4.068c0.966,-1.804 1.458,-4 1.458,-6.586c0,-3.847 -1.016,-6.825 -3.033,-8.885c-2.017,-2.076 -4.471,-3.115 -7.384,-3.115c-2.912,0 -5.354,1.039 -7.316,3.115c-1.967,2.077 -2.95,5.038 -2.95,8.885c-0,3.846 0.967,6.824 2.879,8.884c1.917,2.076 4.338,3.114 7.25,3.114c1.846,0 3.575,-0.442 5.2,-1.344Z" style="fill:#00a7e5;fill-rule:nonzero;"/><path d="M802.363,238.02l-0,19.624c-0,1.361 0.32,2.349 0.983,2.961c0.658,0.613 1.762,0.919 3.321,0.919l4.725,0l-0,8.629l-6.404,0c-8.588,0 -12.888,-4.187 -12.888,-12.594l0,-19.539l-4.812,0l-0,-8.425l4.812,0l0,-10.024l10.263,-0l-0,10.024l9.029,0l-0,8.425l-9.029,0Z" style="fill:#00a7e5;fill-rule:nonzero;"/><rect x="817.3" y="216.014" width="10.196" height="54.156" style="fill:#00a7e5;fill-rule:nonzero;"/><path d="M835.9,238.854c1.625,-3.166 3.825,-5.617 6.621,-7.319c2.796,-1.702 5.912,-2.552 9.367,-2.552c3.012,-0 5.637,0.612 7.908,1.838c2.271,1.225 4.067,2.757 5.421,4.612l-0,-5.787l10.262,0l0,40.541l-10.262,0l-0,-5.923c-1.305,1.906 -3.117,3.472 -5.421,4.715c-2.304,1.242 -4.963,1.872 -7.975,1.872c-3.404,-0 -6.488,-0.885 -9.284,-2.638c-2.795,-1.753 -4.995,-4.238 -6.62,-7.421c-1.625,-3.2 -2.442,-6.876 -2.442,-11.012c0,-4.135 0.817,-7.726 2.442,-10.909l-0.017,-0.017Zm27.858,4.646c-0.962,-1.787 -2.283,-3.148 -3.929,-4.101c-1.658,-0.954 -3.421,-1.43 -5.316,-1.43c-1.896,-0 -3.642,0.459 -5.25,1.396c-1.609,0.919 -2.896,2.28 -3.896,4.067c-1,1.787 -1.492,3.898 -1.492,6.331c0,2.435 0.492,4.579 1.492,6.4c1,1.821 2.304,3.234 3.929,4.204c1.625,0.97 3.354,1.463 5.2,1.463c1.846,0 3.658,-0.476 5.317,-1.429c1.645,-0.954 2.966,-2.315 3.929,-4.102c0.966,-1.787 1.458,-3.914 1.458,-6.399c0,-2.485 -0.492,-4.63 -1.458,-6.4l0.016,0Z" style="fill:#00a7e5;fill-rule:nonzero;"/><path d="M918.008,233.612c2.963,3.046 4.438,7.301 4.438,12.764l-0,23.777l-10.196,-0l0,-22.398c0,-3.217 -0.796,-5.702 -2.404,-7.42c-1.613,-1.737 -3.796,-2.605 -6.554,-2.605c-2.763,0 -5.034,0.868 -6.659,2.605c-1.625,1.735 -2.437,4.203 -2.437,7.42l-0,22.398l-10.196,-0l0,-40.541l10.196,0l-0,5.055c1.354,-1.753 3.1,-3.132 5.2,-4.136c2.1,-1.004 4.437,-1.498 6.958,-1.498c4.813,0 8.692,1.532 11.654,4.579Z" style="fill:#00a7e5;fill-rule:nonzero;"/><path d="M930.508,238.854c1.625,-3.165 3.842,-5.616 6.655,-7.318c2.812,-1.702 5.945,-2.553 9.4,-2.553c2.625,-0 5.116,0.579 7.504,1.719c2.387,1.14 4.266,2.672 5.675,4.578l-0,-19.249l10.346,-0l-0,54.156l-10.346,0l-0,-6.007c-1.271,2.008 -3.034,3.608 -5.321,4.833c-2.288,1.225 -4.929,1.838 -7.942,1.838c-3.404,0 -6.504,-0.885 -9.316,-2.638c-2.813,-1.753 -5.03,-4.238 -6.655,-7.421c-1.629,-3.199 -2.441,-6.875 -2.441,-11.011c-0,-4.136 0.812,-7.727 2.441,-10.91l0,-0.017Zm27.859,4.646c-0.963,-1.787 -2.284,-3.148 -3.929,-4.101c-1.659,-0.953 -3.421,-1.43 -5.317,-1.43c-1.896,0 -3.642,0.46 -5.25,1.396c-1.608,0.919 -2.896,2.28 -3.896,4.067c-1,1.788 -1.492,3.898 -1.492,6.332c0,2.433 0.492,4.578 1.492,6.399c1,1.821 2.304,3.234 3.929,4.204c1.625,0.97 3.354,1.464 5.2,1.464c1.846,-0 3.659,-0.477 5.317,-1.43c1.642,-0.953 2.966,-2.315 3.929,-4.102c0.967,-1.787 1.458,-3.914 1.458,-6.399c0,-2.485 -0.491,-4.63 -1.458,-6.4l0.017,0Z" style="fill:#00a7e5;fill-rule:nonzero;"/></g></svg>