<?xml version="1.0" encoding="UTF-8" standalone="no"?><!DOCTYPE svg PUBLIC "-//W3C//DTD SVG 1.1//EN" "http://www.w3.org/Graphics/SVG/1.1/DTD/svg11.dtd"><svg width="100%" height="100%" viewBox="0 0 438 615" version="1.1" xmlns="http://www.w3.org/2000/svg" xmlns:xlink="http://www.w3.org/1999/xlink" xml:space="preserve"  style="fill-rule:evenodd;clip-rule:evenodd;stroke-linecap:round;stroke-linejoin:round;stroke-miterlimit:1.5;"><rect x="0" y="0" width="437.008" height="461.603" style="fill:#161b4e;"/><g><path d="M164.777,140.755c0,0 25.06,-10.303 51.386,15.531c20.179,19.802 16.252,43.009 16.252,43.009" style="fill:none;stroke:#ffc80a;stroke-width:33.33px;"/><path d="M177.709,91.117c57.124,-0 103.501,46.368 103.501,103.48c-0,57.112 -46.377,103.48 -103.501,103.48c-57.123,-0 -103.5,-46.368 -103.5,-103.48c-0,-57.112 46.377,-103.48 103.5,-103.48Zm0,-0c57.124,-0 103.501,46.368 103.501,103.48c-0,57.112 -46.377,103.48 -103.501,103.48c-57.123,-0 -103.5,-46.368 -103.5,-103.48c-0,-57.112 46.377,-103.48 103.5,-103.48Z" style="fill:none;stroke:#ffc80a;stroke-width:43px;"/><path d="M270.909,258.24l91.048,91.603l-27.08,26.962l-93.415,-93.319l29.447,-25.246Z" style="fill:#ffc80a;stroke:#ffc80a;stroke-width:41px;stroke-linejoin:miter;"/></g></svg>