<?xml version="1.0" encoding="UTF-8" standalone="no"?><!DOCTYPE svg PUBLIC "-//W3C//DTD SVG 1.1//EN" "http://www.w3.org/Graphics/SVG/1.1/DTD/svg11.dtd"><svg width="100%" height="100%" viewBox="0 0 520 520" version="1.1" xmlns="http://www.w3.org/2000/svg" xmlns:xlink="http://www.w3.org/1999/xlink" xml:space="preserve" style="fill-rule:evenodd;clip-rule:evenodd;stroke-linejoin:round;stroke-miterlimit:2;"><path d="M332,151.75c0,-18.075 -14.675,-32.75 -32.75,-32.75l-65.5,0c-18.075,0 -32.75,14.675 -32.75,32.75l0,287.5c0,18.075 14.675,32.75 32.75,32.75l65.5,0c18.075,0 32.75,-14.675 32.75,-32.75l0,-287.5Z" style="fill:#fff;"/><path d="M445.13,349.569c18.074,-0.247 32.547,-15.12 32.3,-33.194l-0.893,-65.494c-0.247,-18.073 -15.12,-32.547 -33.194,-32.3l-353.473,4.823c-18.074,0.247 -32.547,15.12 -32.3,33.194l0.893,65.494c0.247,18.073 15.12,32.546 33.194,32.3l353.473,-4.823Z" style="fill:#161b4e;"/><path d="M200.554,457.808c0.159,18.074 14.962,32.62 33.037,32.461l65.497,-0.575c18.075,-0.159 32.62,-14.962 32.461,-33.036l-3.103,-353.493c-0.159,-18.074 -14.962,-32.62 -33.037,-32.461l-65.497,0.575c-18.075,0.159 -32.62,14.962 -32.461,33.036l3.103,353.493Z" style="fill:#161b4e;"/></svg>