<?xml version="1.0" encoding="UTF-8" standalone="no"?><!DOCTYPE svg PUBLIC "-//W3C//DTD SVG 1.1//EN" "http://www.w3.org/Graphics/SVG/1.1/DTD/svg11.dtd"><svg width="100%" height="100%" viewBox="0 0 520 520" version="1.1" xmlns="http://www.w3.org/2000/svg" xmlns:xlink="http://www.w3.org/1999/xlink" xml:space="preserve" style="fill-rule:evenodd;clip-rule:evenodd;stroke-linecap:round;stroke-linejoin:round;stroke-miterlimit:1.5;"><path d="M45.894,148.206c40.185,-24.264 114.061,-101.908 213.949,-0.253" style="fill:none;stroke:#161b4e;stroke-width:50px;"/><path d="M268.49,148.206c40.185,-24.264 114.062,-101.908 213.949,-0.253" style="fill:none;stroke:#161b4e;stroke-width:50px;"/><path d="M41.57,431.647c40.185,-24.264 114.061,-101.908 213.949,-0.253" style="fill:none;stroke:#161b4e;stroke-width:50px;"/><path d="M264.167,431.647c40.184,-24.264 114.061,-101.908 213.948,-0.253" style="fill:none;stroke:#161b4e;stroke-width:50px;"/><path d="M41.57,148.206l0,283.441" style="fill:none;stroke:#161b4e;stroke-width:50px;"/><path d="M482.439,148.206l-0,283.441" style="fill:none;stroke:#161b4e;stroke-width:50px;"/><path d="M264.167,148.206l-0,283.441" style="fill:none;stroke:#161b4e;stroke-width:50px;"/><path d="M376.03,233.097l0,82.523" style="fill:none;stroke:#161b4e;stroke-width:50px;"/><path d="M357.865,237.548l16.856,-7.008" style="fill:none;stroke:#161b4e;stroke-width:50px;"/><path d="M357.262,316.732l32.597,-0" style="fill:none;stroke:#161b4e;stroke-width:50px;"/><circle cx="374.307" cy="169.936" r="32.437" style="fill:#161b4e;stroke:#161b4e;stroke-width:1px;"/></svg>